<svg xmlns="http://www.w3.org/2000/svg" width="101" height="68" fill="none"><mask id="a" fill="#fff"><path d="M50.16 48.959c1.135-.292 1.616 1.463.482 1.755a20.837 20.837 0 0 0-8.535 4.438l-.073.065.251.226c2.169 2.068 4.056 5.147 3.317 8.262-.611 2.576-3.22 4.797-5.938 4.05-2.718-.746-4.085-3.829-3.68-6.452.35-2.282 1.698-4.308 3.317-6-3.29-2.28-7.419-3.168-11.408-3.253a38.99 38.99 0 0 0-14.53 2.566c-4.713 1.79-9.085 4.768-11.453 9.342l.003.011c-.515.997-2.015.116-1.502-.88 3.201-6.213 9.743-9.639 16.264-11.37 5.817-1.54 12.244-2.142 18.093-.456a18.051 18.051 0 0 1 5.83 2.795 22.898 22.898 0 0 1 9.563-5.1Zm-9.423 7.481c-1.763 1.797-3.415 4.151-2.963 6.61.525 2.86 3.753 4.133 5.52 1.485 1.631-2.455-.017-5.483-1.783-7.344-.25-.262-.509-.512-.774-.75ZM98.924.816c.952-.413 1.794.754 1.262 1.377a.773.773 0 0 1-.043.117.932.932 0 0 1-.043.235l-.072.231a.917.917 0 0 1-.184.59c-4.965 15.966-8.677 32.385-15.649 47.658v.005c-.123.268-.317.405-.528.444-.24.168-.558.214-.885.011a381.74 381.74 0 0 0-11.226-6.61 1.09 1.09 0 0 1-.146.123c-3.31 2.291-6.733 4.408-10.016 6.74v.005c-.56.399-1.102.034-1.276-.477a.861.861 0 0 1-.048-.091c-2.004-4.467-4.092-8.946-5.903-13.5a1.071 1.071 0 0 1-.128-.017c-6.487-1.423-12.912-3.225-19.348-4.852h.002c-.657-.166-.776-.816-.543-1.287a.811.811 0 0 1 .393-.427 557.58 557.58 0 0 1 13.874-7.222C64.963 15.549 81.952 8.2 98.924.816Zm-1.558 4.298c-11.22 11.02-21.972 22.498-33.015 33.694a352.086 352.086 0 0 1 18.59 10.71c6.348-14.268 9.931-29.52 14.456-44.424l-.031.02ZM63.422 40.397c-.432 2.775-.677 5.577-1.011 8.36 2.39-1.711 4.814-3.406 7.328-4.907a381.42 381.42 0 0 0-6.317-3.453Zm25.045-29.17c-3.727 2.631-7.256 5.537-10.832 8.363-7.281 5.75-14.546 11.52-21.853 17.238 1.503 3.708 3.42 7.275 4.947 10.98.274-2.755.482-5.516.963-8.245-.076-.267-.027-.569.224-.829 8.89-9.21 17.696-18.515 26.705-27.616l-.154.11Zm6.096-6.497a6121.836 6121.836 0 0 0-9.218 4.023c-16.23 7.11-32.272 14.578-47.952 22.832 5.616 1.368 11.267 2.663 16.825 4.225a.897.897 0 0 1 .24-.28c7.382-5.885 14.803-11.72 22.21-17.572 3.458-2.732 6.872-5.534 10.46-8.095 2.452-1.748 4.94-3.443 7.435-5.133Z"/></mask><path fill="#B382F1" d="M50.16 48.959c1.135-.292 1.616 1.463.482 1.755a20.837 20.837 0 0 0-8.535 4.438l-.073.065.251.226c2.169 2.068 4.056 5.147 3.317 8.262-.611 2.576-3.22 4.797-5.938 4.05-2.718-.746-4.085-3.829-3.68-6.452.35-2.282 1.698-4.308 3.317-6-3.29-2.28-7.419-3.168-11.408-3.253a38.99 38.99 0 0 0-14.53 2.566c-4.713 1.79-9.085 4.768-11.453 9.342l.003.011c-.515.997-2.015.116-1.502-.88 3.201-6.213 9.743-9.639 16.264-11.37 5.817-1.54 12.244-2.142 18.093-.456a18.051 18.051 0 0 1 5.83 2.795 22.898 22.898 0 0 1 9.563-5.1Zm-9.423 7.481c-1.763 1.797-3.415 4.151-2.963 6.61.525 2.86 3.753 4.133 5.52 1.485 1.631-2.455-.017-5.483-1.783-7.344-.25-.262-.509-.512-.774-.75ZM98.924.816c.952-.413 1.794.754 1.262 1.377a.773.773 0 0 1-.043.117.932.932 0 0 1-.043.235l-.072.231a.917.917 0 0 1-.184.59c-4.965 15.966-8.677 32.385-15.649 47.658v.005c-.123.268-.317.405-.528.444-.24.168-.558.214-.885.011a381.74 381.74 0 0 0-11.226-6.61 1.09 1.09 0 0 1-.146.123c-3.31 2.291-6.733 4.408-10.016 6.74v.005c-.56.399-1.102.034-1.276-.477a.861.861 0 0 1-.048-.091c-2.004-4.467-4.092-8.946-5.903-13.5a1.071 1.071 0 0 1-.128-.017c-6.487-1.423-12.912-3.225-19.348-4.852h.002c-.657-.166-.776-.816-.543-1.287a.811.811 0 0 1 .393-.427 557.58 557.58 0 0 1 13.874-7.222C64.963 15.549 81.952 8.2 98.924.816Zm-1.558 4.298c-11.22 11.02-21.972 22.498-33.015 33.694a352.086 352.086 0 0 1 18.59 10.71c6.348-14.268 9.931-29.52 14.456-44.424l-.031.02ZM63.422 40.397c-.432 2.775-.677 5.577-1.011 8.36 2.39-1.711 4.814-3.406 7.328-4.907a381.42 381.42 0 0 0-6.317-3.453Zm25.045-29.17c-3.727 2.631-7.256 5.537-10.832 8.363-7.281 5.75-14.546 11.52-21.853 17.238 1.503 3.708 3.42 7.275 4.947 10.98.274-2.755.482-5.516.963-8.245-.076-.267-.027-.569.224-.829 8.89-9.21 17.696-18.515 26.705-27.616l-.154.11Zm6.096-6.497a6121.836 6121.836 0 0 0-9.218 4.023c-16.23 7.11-32.272 14.578-47.952 22.832 5.616 1.368 11.267 2.663 16.825 4.225a.897.897 0 0 1 .24-.28c7.382-5.885 14.803-11.72 22.21-17.572 3.458-2.732 6.872-5.534 10.46-8.095 2.452-1.748 4.94-3.443 7.435-5.133Z"/><path fill="#B382F1" d="m50.16 48.959.25.968-.25-.968Zm.482 1.755.244.97.005-.002-.249-.968Zm-8.535 4.438-.654-.757-.004.004.658.753Zm-.073.065-.66-.751-.847.745.84.751.667-.745Zm.251.226.69-.724-.01-.009-.68.733Zm3.317 8.262.973.23-.973-.23Zm-5.938 4.05-.265.965.265-.964Zm-3.68-6.452.987.152-.988-.152Zm3.317-6 .722.69.81-.845-.963-.667-.57.822ZM27.893 52.05l.022-1h-.006l-.016 1Zm-14.53 2.566.355.935h.002l-.357-.935ZM1.91 63.958l-.888-.46-.174.336.092.366.97-.242Zm.003.011.888.46.174-.336-.092-.366-.97.242ZM.41 63.09l-.889-.458.889.458Zm16.264-11.37-.256-.966.256.966Zm18.093-.456-.276.96.013.004.263-.964Zm5.83 2.795-.587.81.649.47.6-.53-.663-.75Zm.823-.699-.63-.776h-.001l.63.776Zm-.684 3.081.67-.742-.712-.643-.672.685.714.7Zm-2.963 6.61.984-.18-.984.18Zm5.52 1.485.832.555v-.002l-.832-.553ZM41.51 57.19l-.726.688.726-.688ZM98.923.816 98.525-.1l.399.917Zm1.262 1.377-.76-.65-.145.17-.059.214.964.266Zm-.043.117-.913-.408-.073.165-.012.18.998.063Zm-.043.235.954.3-.954-.3Zm-.072.231-.954-.299-.051.163.006.171.999-.035Zm-.184.59-.798-.601-.105.138-.051.166.954.297ZM84.195 51.024l-.91-.415-.09.198v.217h1Zm0 .005.909.417.091-.198v-.219h-1Zm-.528.444-.184-.982-.211.039-.176.122.57.821Zm-.885.011.527-.85-.005-.003-.522.853Zm-11.226-6.61.493-.87-.657-.372-.538.531.702.712Zm-.146.123-.568-.823h-.001l.569.823Zm-10.016 6.74-.579-.815-.42.299v.516h1Zm0 .005.58.815.42-.3v-.515h-1Zm-1.276-.477.946-.322-.034-.1-.054-.092-.858.514Zm-.048-.091-.912.409.912-.41Zm-5.903-13.5.929-.37-.227-.57-.612-.055-.09.996Zm-.128-.017-.214.977.008.002.206-.979ZM34.69 32.805v-1l-.245 1.969.245-.97Zm.002 0v1l.245-1.97-.245.97Zm-.543-1.287.896.444.023-.045.017-.047-.936-.352Zm.393-.427-.474-.88.474.88Zm13.874-7.222.449.893-.45-.893Zm48.95-18.755-.562-.827-.074.05-.065.064.701.713ZM64.351 38.808l-.712-.702-.938.952 1.178.632.472-.882Zm18.59 10.71-.526.85.974.601.465-1.045-.914-.407ZM97.396 5.093l.957.29.822-2.707-2.34 1.59.561.827ZM63.422 40.397l.471-.882-1.243-.664-.216 1.392.988.154Zm-1.011 8.36-.993-.12-.27 2.253 1.845-1.32-.582-.813Zm7.328-4.907.513.859 1.486-.887-1.511-.845-.488.873Zm18.728-32.623.576.817-.576-.817ZM77.635 19.59l.62.784-.62-.784ZM55.782 36.828l-.616-.788-.594.465.283.698.927-.375Zm4.947 10.98-.924.38 1.92-.282-.996-.099Zm.963-8.245.985.174.04-.227-.063-.222-.962.275Zm.224-.829-.72-.694.72.694ZM88.62 11.118l.71.704-1.287-1.521.577.817Zm5.942-6.388.561.828-.96-1.745.4.917Zm-9.218 4.023-.4-.916.4.916Zm-47.95 22.832-.465-.885-2.339 1.23 2.568.626.236-.971Zm16.825 4.225-.27.963.779.219.377-.716-.886-.466Zm.24-.28-.624-.782.624.782Zm22.21-17.572-.62-.785.62.785Zm10.46-8.095-.58-.814.58.814ZM50.162 48.96l.249.968c.014-.003.002.002-.027-.003a.194.194 0 0 1-.075-.03.098.098 0 0 1-.025-.023l.005.011.001.007c0-.004.002-.021.014-.047a.231.231 0 0 1 .062-.077c.027-.022.043-.023.029-.02l.248.969.25.968a1.82 1.82 0 0 0 1.214-.973c.216-.45.224-.94.11-1.356a1.976 1.976 0 0 0-.777-1.109 1.848 1.848 0 0 0-1.527-.254l.249.969Zm.481 1.755-.244-.97a21.838 21.838 0 0 0-8.945 4.651l.654.757.654.757a19.837 19.837 0 0 1 8.125-4.226l-.244-.97Zm-8.535 4.438-.658-.753-.076.067.661.75.66.751.071-.062-.658-.753Zm-.073.065-.666.745c.088.08.163.145.237.214l.68-.733.68-.733c-.091-.085-.185-.168-.265-.239l-.666.746Zm.251.226-.69.724c2.089 1.991 3.647 4.724 3.034 7.307l.973.23.973.232c.865-3.647-1.351-7.072-3.6-9.217l-.69.724Zm3.317 8.262-.973-.231a4.806 4.806 0 0 1-1.798 2.696c-.87.639-1.892.899-2.902.621l-.265.965-.265.964c1.707.469 3.35-.009 4.615-.938a6.805 6.805 0 0 0 2.561-3.846l-.973-.231Zm-5.938 4.05.265-.964c-2.084-.572-3.31-3.051-2.958-5.336l-.988-.152-.988-.153c-.457 2.963 1.053 6.65 4.404 7.57l.265-.964Zm-3.68-6.452.987.152c.308-1.994 1.502-3.84 3.052-5.461l-.722-.691-.723-.692c-1.687 1.765-3.188 3.971-3.583 6.54l.988.151Zm3.317-6 .57-.822c-3.506-2.43-7.852-3.343-11.956-3.431l-.022 1-.021 1c3.873.082 7.787.945 10.859 3.074l.57-.822ZM27.893 52.05l.016-1a39.991 39.991 0 0 0-14.903 2.632l.357.934.357.934a37.99 37.99 0 0 1 14.158-2.5l.015-1Zm-14.53 2.566-.355-.935C8.16 55.523 3.543 58.63 1.022 63.498l.888.46.888.46c2.215-4.278 6.34-7.127 10.92-8.867l-.355-.935ZM1.91 63.958l-.97.242.003.012.97-.243.97-.242-.003-.012-.97.243Zm.003.011-.888-.459c-.005.009.005-.013.041-.041a.3.3 0 0 1 .122-.056c.077-.016.108.009.095.001-.012-.007 0-.007.012.026.007.02.012.046.01.073-.001.029-.009.04-.005.033l-.89-.457-.888-.458c-.557 1.083.033 2.088.748 2.508.363.213.832.333 1.32.233.518-.106.952-.442 1.211-.943l-.888-.46ZM.41 63.09l.889.458c3.012-5.845 9.224-9.16 15.631-10.86l-.256-.968-.257-.966C9.784 52.513 2.913 56.05-.478 62.631l.889.458Zm16.264-11.37.256.967c5.722-1.515 11.95-2.079 17.56-.463l.277-.96.277-.961c-6.087-1.754-12.713-1.115-18.626.45l.256.967Zm18.093-.456-.264.964a17.051 17.051 0 0 1 5.507 2.641l.586-.81.587-.81a19.052 19.052 0 0 0-6.152-2.95l-.264.965Zm5.83 2.795.662.75c.264-.234.528-.459.791-.673l-.63-.776-.631-.776c-.287.233-.572.476-.855.726l.662.75Zm.823-.699.63.777a21.902 21.902 0 0 1 8.358-4.209l-.248-.968-.248-.969a23.9 23.9 0 0 0-9.122 4.593l.63.776Zm-.684 3.081-.714-.7c-.917.935-1.846 2.054-2.487 3.3-.643 1.248-1.023 2.68-.745 4.191l.983-.18.984-.181c-.175-.948.045-1.924.556-2.915.513-.997 1.292-1.953 2.137-2.814l-.714-.7Zm-2.963 6.61-.983.181c.322 1.757 1.495 3.114 2.977 3.58 1.546.488 3.244-.053 4.358-1.721l-.832-.555-.832-.555c-.654.98-1.452 1.126-2.093.924-.706-.222-1.409-.931-1.611-2.034l-.984.18Zm5.52 1.485.833.553c1.033-1.554.994-3.266.499-4.762-.489-1.477-1.44-2.823-2.39-3.823l-.725.688-.726.689c.817.86 1.573 1.959 1.942 3.074.363 1.097.332 2.127-.266 3.027l.833.554ZM41.51 57.19l.725-.688a14.54 14.54 0 0 0-.829-.805l-.67.742-.67.743c.25.225.49.456.718.696l.726-.688ZM98.923.816l.398.917c.014-.006.016-.004.008-.004-.007 0-.014 0-.018-.002-.005-.001.01.003.03.026.02.026.013.034.01.003a.254.254 0 0 1 .01-.094.323.323 0 0 1 .064-.118l.76.65.761.648c.695-.814.381-1.824-.065-2.364-.487-.588-1.391-.998-2.357-.579l.399.917Zm1.262 1.377-.964-.266.008-.025.913.408.913.408a1.74 1.74 0 0 0 .094-.259l-.964-.266Zm-.043.117-.998-.063v.003l.001-.005.954.3.954.3c.053-.169.078-.327.087-.471l-.998-.064Zm-.043.235-.954-.3-.072.232.954.3.954.298.072-.23-.954-.3Zm-.072.231-1 .035c0-.001 0-.008.004-.019a.094.094 0 0 1 .014-.027l.798.601.799.601c.284-.376.399-.811.385-1.226l-1 .035Zm-.184.59-.954-.297c-4.998 16.068-8.668 32.343-15.605 47.54l.91.415.91.415c7.006-15.35 10.76-31.912 15.694-47.776l-.955-.297ZM84.195 51.024h-1v.005h2v-.005h-1Zm0 .005-.909-.417c-.004.01.008-.02.051-.054a.333.333 0 0 1 .145-.067l.185.982.184.983c.55-.103 1.004-.467 1.253-1.01l-.909-.417Zm-.528.444-.571-.82a.255.255 0 0 1 .19-.026c.02.005.028.01.023.007l-.527.85-.527.85c.695.43 1.443.336 1.983-.04l-.571-.82Zm-.885.011.522-.853a383.192 383.192 0 0 0-11.255-6.626l-.493.87-.492.87a380.9 380.9 0 0 1 11.196 6.592l.522-.853Zm-11.226-6.61-.702-.71-.012.01.568.823.568.823a2.08 2.08 0 0 0 .281-.234l-.703-.711Zm-.146.123-.57-.822c-1.642 1.137-3.314 2.232-4.998 3.342-1.68 1.107-3.37 2.227-5.027 3.405l.58.815.578.815c1.626-1.155 3.29-2.258 4.97-3.365 1.675-1.105 3.37-2.214 5.036-3.368l-.569-.822Zm-10.016 6.74h-1v.005h2v-.005h-1Zm0 .005-.58-.815c-.016.012.006-.008.065-.014a.298.298 0 0 1 .152.024c.035.016.047.032.046.03a.087.087 0 0 1-.013-.024l-.946.322-.947.323c.16.467.504.925 1.02 1.164.57.264 1.226.201 1.783-.195l-.58-.815Zm-1.276-.477.858-.514.007.013-.913.41-.912.409c.03.069.065.135.102.197l.858-.515Zm-.048-.091.913-.41c-2.012-4.485-4.086-8.932-5.887-13.46l-.93.37-.928.37c1.822 4.58 3.924 9.09 5.92 13.539l.912-.41Zm-5.903-13.5.09-.995-.024-.003.012.002-.206.979-.206.979c.103.021.193.03.244.035l.09-.996Zm-.128-.017.214-.977c-6.467-1.418-12.846-3.209-19.317-4.845l-.245.97-.245.969c6.402 1.618 12.872 3.433 19.379 4.86l.214-.977ZM34.69 32.805v1h.002v-2h-.002v1Zm.002 0 .245-.97c-.018-.005.003-.002.036.028a.218.218 0 0 1 .06.09c.008.023.006.033.007.029 0-.005.002-.013.005-.02l-.896-.444-.896-.443c-.22.444-.291 1-.112 1.524.193.566.653 1.01 1.307 1.175l.244-.97Zm-.543-1.287.936.352a.257.257 0 0 1-.047.08c-.019.02-.03.025-.022.021l-.474-.88-.474-.88a1.81 1.81 0 0 0-.855.955l.936.352Zm.393-.427.474.88a556.789 556.789 0 0 1 13.849-7.209l-.45-.893-.448-.893a558.552 558.552 0 0 0-13.9 7.234l.475.88Zm13.874-7.222.449.893c16.517-8.304 33.48-15.641 50.458-23.029l-.4-.917-.398-.917C81.559 7.282 64.543 14.642 47.968 22.976l.449.893Zm48.95-18.755-.7-.713C85.441 15.423 74.652 26.939 63.638 38.106l.712.702.712.703C76.135 28.285 86.85 16.844 98.067 5.828l-.701-.714ZM64.351 38.808l-.472.882a351.17 351.17 0 0 1 18.536 10.678l.525-.85.526-.852a353.147 353.147 0 0 0-18.642-10.739l-.473.881Zm18.59 10.71.913.406c6.382-14.343 10-29.719 14.5-44.54l-.957-.29-.957-.291c-4.55 14.986-8.098 30.116-14.413 44.308l.913.406ZM97.396 5.093l-.561-.828.006-.004-.002.001-.013.009a1.212 1.212 0 0 0-.023.015l.562.827.562.827-.007.005.003-.002.012-.008.023-.015-.562-.827ZM63.422 40.397l-.988-.154c-.436 2.796-.688 5.657-1.016 8.395l.993.119.993.119c.339-2.828.577-5.572 1.006-8.325l-.988-.154Zm-1.011 8.36.582.813c2.388-1.709 4.783-3.383 7.259-4.861l-.513-.859-.513-.858c-2.552 1.523-5.004 3.239-7.397 4.951l.582.814Zm7.328-4.907.488-.873a382.406 382.406 0 0 0-6.334-3.462l-.471.882-.472.882a381.51 381.51 0 0 1 6.301 3.444l.488-.873Zm18.728-32.623-.577-.817c-3.755 2.652-7.32 5.586-10.875 8.395l.62.785.62.784c3.598-2.842 7.092-5.72 10.788-8.33l-.576-.817ZM77.635 19.59l-.62-.785c-7.284 5.753-14.544 11.52-21.85 17.235l.617.788.616.787c7.31-5.719 14.578-11.492 21.856-17.24l-.62-.785ZM55.782 36.828l-.927.375c.764 1.884 1.63 3.728 2.487 5.543.86 1.823 1.71 3.617 2.463 5.442l.924-.38.925-.382c-.775-1.88-1.647-3.72-2.503-5.534-.86-1.821-1.703-3.615-2.442-5.44l-.927.376Zm4.947 10.98.995.098c.277-2.786.48-5.49.953-8.169l-.985-.174-.985-.173c-.49 2.777-.703 5.597-.973 8.319l.995.098Zm.963-8.245.962-.275a.186.186 0 0 1-.017.137c-.006.01-.008.01-.002.004l-.72-.695-.719-.694a1.829 1.829 0 0 0-.465 1.798l.961-.275Zm.224-.829.72.695c8.899-9.22 17.692-18.512 26.696-27.608l-.711-.703-.71-.704C78.894 19.521 70.076 28.84 61.195 38.04l.72.694ZM88.62 11.118l-.577-.817-.154.11.577.816.577.817.153-.109-.576-.817Zm5.942-6.388-.399-.917a6151.67 6151.67 0 0 0-9.22 4.024l.401.916.401.916c3.074-1.344 6.146-2.685 9.217-4.022l-.4-.917Zm-9.218 4.023-.4-.916C68.701 14.954 52.634 22.432 36.927 30.7l.465.885.466.885C53.511 24.23 69.53 16.774 85.747 9.669l-.401-.916Zm-47.95 22.832-.236.971c5.633 1.373 11.254 2.661 16.791 4.217l.27-.963.271-.962c-5.581-1.569-11.262-2.87-16.859-4.235l-.237.972Zm16.825 4.225.885.466a.208.208 0 0 1-.023.036c-.005.006-.006.006.002 0l-.624-.782-.624-.781a1.895 1.895 0 0 0-.5.596l.884.465Zm.24-.28.623.782c7.38-5.884 14.798-11.716 22.207-17.57l-.62-.784-.62-.785c-7.404 5.85-14.829 11.688-22.214 17.575l.624.782Zm22.21-17.572.62.785c3.478-2.748 6.86-5.524 10.422-8.066l-.581-.814-.581-.814c-3.615 2.58-7.061 5.408-10.5 8.124l.62.785Zm10.46-8.095.581.814c2.44-1.74 4.92-3.43 7.415-5.119l-.56-.828-.561-.828c-2.496 1.69-4.993 3.39-7.455 5.147l.58.814Z" mask="url(#a)"/></svg>