<svg xmlns="http://www.w3.org/2000/svg" width="131" height="128" fill="none"><path fill="#A8DBF8" d="M54.86 47.193c-11.566 9.26-21.886 20.117-30.325 32.325-4.04 5.843-7.63 11.987-10.936 18.274-3.517 6.683-5.96 13.81-9.256 20.577-1.066 2.183-3.876.484-3.594-1.512 1.058-7.428 4.16-14.775 7.13-21.614 3.024-6.967 6.739-13.596 10.923-19.922a144.728 144.728 0 0 1 30.73-33.528c3.775-2.996 9.141 2.35 5.328 5.403v-.003ZM25.506 35.676c1.996.228 4.14-.379 6.11-.694 1.791-.288 3.579-.575 5.37-.859 1.787-.289 3.565-.592 5.317-1.045 1.815-.47 3.551-1.145 5.382-1.581 2.383-.568 1.875-4.358-.591-4.278-1.884.058-3.74-.14-5.613-.118-1.812.018-3.61.191-5.409.38-1.803.192-3.606.38-5.409.574-1.975.208-4.225.196-6.08.935-1.585.632-2.684 1.94-2.43 3.745.248 1.804 1.649 2.75 3.356 2.946l-.003-.005Zm20.699-24.752c.425.517.852 1.029 1.278 1.546.917 1.1 1.852 2.185 2.804 3.254a71.799 71.799 0 0 0 2.924 3.131c.377.375.782.719 1.211 1.03.248.214.501.42.768.612.295.189.608.394.912.569.458.265.916.364 1.381.372 1.546.806 3.566-.684 2.91-2.418a2.607 2.607 0 0 0-.042-1.217c-.13-.318-.263-.634-.398-.95.144.292.156.274.041-.046a5.074 5.074 0 0 0-.462-1.024c-.1-.19-.14-.268-.134-.242a6.593 6.593 0 0 0-.532-1.013 75.613 75.613 0 0 0-2.512-3.628 156.655 156.655 0 0 0-3.034-4.024c-.446-.567-.888-1.13-1.329-1.697-.236-.302-.461-.618-.71-.903-.648-.748-1.35-1.025-2.244-1.395-1.24-.51-2.908.125-3.803 1.01-1.077 1.065-1.283 2.433-1.03 3.866.228 1.274 1.205 2.208 2 3.17v-.003Zm26.35-1.783c-.314 2.23-.764 4.445-1.166 6.66-.19 1.057.31 2.142 1.404 2.436.995.269 2.199-.348 2.427-1.405.468-2.197.89-4.406 1.445-6.584.272-1.065.543-2.13.811-3.2.303-1.2.75-2.486.728-3.73-.015-.775-.436-1.655-1.158-2.012-.394-.194-.749-.352-1.203-.324-.746.046-1.677.407-2.003 1.16-.511 1.197-.638 2.427-.82 3.705-.155 1.096-.31 2.193-.47 3.293h.005Zm8.33 21.48c1.2-.37 2.512-.578 3.793-.94 1.29-.364 2.547-.9 3.805-1.361 1.23-.452 2.449-.922 3.67-1.389.739-.281 1.505-.527 2.178-.953.65-.41 1.418-.795 1.935-1.376 1.289-1.439.355-3.49-1.51-3.637-.739-.057-1.518.19-2.242.337-.785.162-1.497.5-2.235.81-1.245.521-2.488 1.036-3.724 1.579-1.19.516-2.432.98-3.581 1.583-1.208.634-2.33 1.415-3.488 1.991-1.86.922-.575 3.972 1.395 3.355l.005.002Zm6.412 11.577c-1.902-1.086-3.884-2.04-5.82-3.07-.88-.472-2.12-.263-2.619.684-.5.949-.22 2.05.685 2.628 1.845 1.184 3.644 2.447 5.522 3.572l2.913 1.752c.557.334 1.106.703 1.737.887.986.282 2.103.03 2.656-.914.552-.948.22-2.067-.518-2.789-.467-.455-1.048-.75-1.608-1.069-.986-.563-1.971-1.125-2.953-1.682h.004v.001ZM69.32 47.781c-.033.125-.036.183-.017.175-.153.324-.19.744-.216 1.076-.035.43-.031.867-.046 1.298-.033.891-.102 1.793-.089 2.684.013.862.106 1.731.16 2.592.027.43.054.865.085 1.295.012.217.026.434.048.65.076.761.302 1.257.809 1.833.487.563 1.291.758 1.997.663.754-.106 1.29-.502 1.714-1.124.657-.965.378-2.33.32-3.438-.05-.863-.07-1.73-.157-2.59-.101-1-.303-1.995-.456-2.987-.067-.42-.116-.847-.197-1.262-.052-.265-.147-.467-.24-.714.02.03-.116-.442-.13-.5-.2-.752-.982-1.39-1.776-1.349-.737.037-1.64.55-1.752 1.357-.014.118-.033.235-.047.352l-.01-.01Zm13.599 41.35c-5.357-.184-11.096 1.372-16.178 2.953a80.855 80.855 0 0 0-15.138 6.47c-9.56 5.302-17.46 13.136-24.026 21.809-1.242 1.637 1.576 3.856 2.863 2.233 6.471-8.172 14.841-14.28 23.952-19.21a73.432 73.432 0 0 1 14.19-5.858c4.976-1.468 10.044-1.949 15.082-3.035 3.107-.67 2.248-5.26-.74-5.365l-.005.002Zm16.21-8.713c.509.066 1.064.002 1.512-.284.498-.318 1.039-.85 1.12-1.468.223-1.694.606-3.365.637-5.08.017-.767.029-1.534.046-2.3.027-1.34.185-2.711-.892-3.755-1.126-1.086-2.802-1.057-3.945-.025-.72.651-.942 1.562-.955 2.5-.003.276-.008.547-.01.823-.01.629-.015 1.26-.024 1.89-.018 1.317-.073 2.746.272 4.036l.13 1.299c.118 1.213.848 2.2 2.105 2.363l.004.001Zm-12.84-6.56c.02.017.035.041.054.06.553.355 1.14.658 1.713.976.975.54 1.318 1.787.909 2.777-.418 1.005-1.54 1.596-2.607 1.298-.65-.178-1.294-.377-1.95-.512-.125 0-.255-.002-.383-.02a10.258 10.258 0 0 1-.602-.09l-.15-.028c-.913-.02-1.85-.34-2.702-.602-1.016-.316-2.058-.748-2.936-1.34-1.307-.887-1.898-2.423-1.279-3.915.27-.65.704-1.141 1.297-1.517.714-.456 1.582-.457 2.378-.313 1.04.187 2.085.628 3.029 1.112.76.39 1.59.797 2.234 1.381.078.055.156.109.234.159.254.173.54.351.757.568l.003.006Zm38.325.53c-.572-.753-1.571-.934-2.401-.496-.446.236-.837.544-1.246.84-.5.36-1.006.709-1.46 1.127a66.307 66.307 0 0 1-2.192 1.945c-1.526 1.28-3.051 2.556-4.577 3.837-.72.605-.682 1.92-.01 2.544.781.73 1.742.634 2.537.015 1.549-1.21 3.094-2.423 4.644-3.634.732-.572 1.164-.875 2.044-1.5.875-.625 1.814-1.391 2.507-2.224.602-.722.753-1.67.158-2.454h-.004Zm5.338 23.098c-2.689-1.859-5.415-3.664-8.212-5.35-.786-.477-1.968-.21-2.407.626-.481.913-.172 1.834.628 2.418 2.645 1.926 5.369 3.74 8.126 5.5.812.52 2.069.201 2.524-.659.493-.94.193-1.946-.659-2.535Zm-19.256 13.723c-.125-.661-.316-1.308-.494-1.954l-.533-1.944c-.197-.705-.455-1.361-.734-2.039-.193-.466-.412-.91-.884-1.159a2.001 2.001 0 0 0-1.239-.233c-.853.118-1.799.959-1.667 1.916.115.838.21 1.672.43 2.488l.539 2.016c.18.673.346 1.35.579 2.007.244.681.511 1.355.774 2.029.184.468.406.854.854 1.117.4.234.987.337 1.435.19.451-.146.884-.423 1.112-.855.247-.474.273-.914.188-1.44-.115-.716-.225-1.429-.356-2.142l-.004.003ZM95.951 101c-.903-.478-1.95-.212-2.502.653-.38.596-.796 1.184-1.147 1.797-.013.021-.02.028-.029.046-.052.057-.108.109-.16.167-.107.117-.203.242-.302.365-.315.38-.623.766-.88 1.187-.374.603-.759 1.201-1.096 1.826-.423.786-.755 1.597-1.062 2.435-.315.869.218 2.059 1.016 2.484.35.186.736.29 1.131.304.471.018 1.235-.249 1.536-.637.525-.674 1.035-1.336 1.46-2.084.367-.642.683-1.31 1.006-1.976.222-.456.41-.915.57-1.391.05-.15.107-.302.148-.454.027-.103.052-.209.074-.311-.108.214-.125.251-.06.114.305-.676.637-1.34.953-2.008.408-.861.271-2.02-.654-2.512L95.95 101Zm-50.46 17.229-8.93 6.439c-.743.536-1.184 1.551-.641 2.409.47.742 1.606 1.224 2.401.647l8.93-6.439c.744-.536 1.185-1.552.643-2.409-.47-.741-1.607-1.223-2.403-.647Z"/></svg>