<svg xmlns="http://www.w3.org/2000/svg" width="82" height="132" fill="none"><path fill="#B382F1" d="M16.593 80.731C5.352 84.504-.243 97.1 1.79 107.92c1.994 10.62 10.632 19.898 21.445 22.232 10.812 2.334 22.558-2.681 29.428-11.282 3.802-4.765 6.157-10.751 6-16.763-.15-5.715-2.808-10.998-6.813-14.963-9.539-9.443-26.718-11.32-38.963-5.238-1.694.843-.257 3.265 1.434 2.459 9.9-4.796 23.374-3.803 32.2 2.234 4.108 2.81 7.41 6.996 8.66 11.833 1.373 5.296.048 11.122-2.787 15.873-4.966 8.309-14.683 13.964-24.415 13.688-10.155-.297-19.033-7.508-22.475-16.615-3.947-10.439.05-24.473 11.539-28.963 1.031-.403.66-2.01-.44-1.643l-.009-.04Zm-1.397-19.994c-3.747-6.934-7.045-14.006-8.868-21.732-1.773-7.526-2.19-15.475-.745-23.184.647-3.441 1.433-7.398 3.312-10.447.776-1.26 1.98-2.544 3.613-2.227 1.94.377 3.526 2.453 4.545 3.969 2.046 3.037 3.094 6.603 3.934 10.146.95 3.999 1.762 8.04 2.576 12.07 1.9 9.418 3.25 18.854 3.434 28.512.032 1.816 2.881 1.788 2.885-.042.028-9.57-1.478-19.06-3.34-28.371-.9-4.5-1.798-9.017-2.889-13.47-.957-3.914-2.25-7.872-4.687-11.128-2.02-2.694-5.31-5.697-9.043-4.092-3.489 1.5-4.786 5.705-5.757 8.95-2.469 8.247-2.837 16.896-1.51 25.26 1.512 9.529 5.155 18.996 10.631 26.91.778 1.116 2.57.108 1.91-1.114v-.01Zm30.337.613c1.502-7.97 3.255-15.752 6.422-23.318a86.619 86.619 0 0 1 12.661-21.288c2.359-2.89 5.855-6.37 9.97-5.462 4.6 1.018 4.625 6.626 3.763 10.265-1.822 7.705-5.157 15.27-9.066 22.23A99.852 99.852 0 0 1 52.75 65.505c-1.36 1.356.703 3.386 2.063 2.027a103.13 103.13 0 0 0 16.421-21.409 102.072 102.072 0 0 0 5.972-12.227c1.68-4.11 3.329-8.443 4.135-12.79.721-3.974.312-8.502-3.076-11.12-3.211-2.48-7.824-1.724-11.08.524-3.49 2.41-6.047 6.132-8.413 9.547a89.471 89.471 0 0 0-7.096 12.127c-4.352 9.003-7.694 19.015-8.23 28.925-.06 1.154 1.865 1.425 2.088.245v-.003Z"/><path fill="#B382F1" d="M25.838 111.365a4.637 4.637 0 0 0 2.532 1.029 4.886 4.886 0 0 0 2.727-.557 1.12 1.12 0 0 0 .504-.656 1.047 1.047 0 0 0-.095-.802 3.95 3.95 0 0 0-2.07-1.843 4.205 4.205 0 0 0-2.83-.071c-2.548.895-.38 3.255 1.094 3.818 1.355.504 4.956.402 4.471-1.901-.198-.933-1.34-1.566-2.155-1.886a5.066 5.066 0 0 0-3.305-.202c-.801.249-1.533.936-1.542 1.801-.019 1.222 1.21 1.85 2.23 2.154 1.482.443 5.186.323 5.275-1.901.09-2.224-3.812-2.543-5.323-1.956-.818.311-1.633 1.061-1.61 1.974.026 1.338 1.39 1.705 2.495 1.87 1.199.181 2.854.316 3.974-.269.246-.111.465-.275.64-.48.174-.204.3-.444.367-.7a1.71 1.71 0 0 0 .023-.779 1.662 1.662 0 0 0-.328-.7c-1.359-1.851-4.365-1.918-6.223-.698-1.336.881-.123 2.978 1.223 2.088a2.56 2.56 0 0 1 1.932-.454c.254.048.722.408.924.402.326.301.466.023.452-.835a2.964 2.964 0 0 1-.752.118c-.417.04-.835.046-1.251.018a6.1 6.1 0 0 1-.905-.132c-.627-.266-.647-.005-.061.784.19.097.878-.075 1.115-.046.233.038.461.094.683.169.399.302.517.181.36-.37.17-.538.046-.673-.372-.397a3.003 3.003 0 0 1-.72.134 3.486 3.486 0 0 1-1.073-.095 2.494 2.494 0 0 1-.681-.263c-.42.684-.412.948.027.79.25.11.778-.012 1.071.065.356.086.657.351.986.437.479.542.586.245.344-.889a1.653 1.653 0 0 1-.587.09c-.453.007-1.598-.207-1.662-.749l-.133.889c-.223.328 0 .075.27.104.238.004.473.038.7.1a1.89 1.89 0 0 1 1.055.914l.409-1.459a3.12 3.12 0 0 1-1.561.383 2.978 2.978 0 0 1-1.518-.448c-.85-.488-1.92.772-1.116 1.41l-.01-.003Z"/><path fill="#B382F1" d="M28.608 111.414a19.37 19.37 0 0 0-1.381 6.327c-.04 1.349 1.89 1.5 2.312.275.673-2.069.995-4.224.955-6.376-.036-1.118-1.484-1.207-1.892-.226h.006Zm-8.574-11.869a1.1 1.1 0 0 0 .003-.595 1.073 1.073 0 0 0-.309-.502 1.106 1.106 0 0 0-.531-.269c-.2-.04-.41-.025-.605.042a1.596 1.596 0 0 0-.873.752 1.5 1.5 0 0 0-.121 1.121c.094.328.272.625.518.862s.552.406.887.492a1.903 1.903 0 0 0 1.997-.8c.825-1.188-.012-2.947-1.488-2.902-1.562.023-2.704 2.08-1.49 3.206.256.238.577.4.926.469a1.99 1.99 0 0 0 1.053-.079c.954-.339 1.577-1.293 1.105-2.252a1.128 1.128 0 0 0-.364-.372 1.172 1.172 0 0 0-.498-.174 1.223 1.223 0 0 0-.99.34 2.303 2.303 0 0 0-.236.296c-.058.082-.018.032.12-.145-.067.085-.134.168-.198.253l.138-.168c-.064.063-.047.056.05-.023.034-.03.194-.14 0 0 .05-.027.332-.106.12-.064-.13.028.358-.031.14-.025-.17.003.154.02.168.024-.195-.036.269.145.101.047a.63.63 0 0 1 .343.515c0 .075-.075.417-.003.24-.028.076-.136.256-.028.085.109-.17-.195.218-.04.076l-.148.112c.087-.046.077-.046-.03.001-.106.047-.116.047-.053.03s.04-.001-.17.025l-.197-.02c-.181-.085-.23-.104-.148-.059.082.044.032.016-.056-.045a.473.473 0 0 1-.192-.212c.077.139-.041-.113-.04-.132 0-.02.045.259.019 0-.026-.26-.026-.026 0 0-.05-.185.06-.268.002-.117-.059.15.152-.26.04-.102l.125-.148c-.063.063-.053.056.034 0 .046-.024.333-.142.177-.104l.182-.028c.188.033.234.038.145.02-.089-.018.24.156.053.025-.125-.085.029.026.065.055-.186-.157.186.172 0 0-.091-.083 0 0 .032.08-.003.17.013.212.015.124 0-.088-.016-.046-.056.156a.58.58 0 0 1-.108.274.605.605 0 0 1-.23.19l-.16.064.254-.108c.394-.272.27-.249-.372.07l-.48-.119.029-.001-.326-.32.02.032-.123-.46v.046c0 .218.08.426.224.587a.907.907 0 0 0 .563.292.95.95 0 0 0 .632-.149.943.943 0 0 0 .39-.516l-.007.007Zm17.795 2.642c.222.142.481.219.75.223a1.556 1.556 0 0 0 1.357-.78 1.48 1.48 0 0 0 .196-.789 1.564 1.564 0 0 0-1.13-1.452 1.505 1.505 0 0 0-1.71 1.091c-.15.468-.11.969.113 1.398.222.428.609.749 1.077.895.86.24 1.663-.571 1.935-1.329a1.56 1.56 0 0 0 .022-1.025 1.52 1.52 0 0 0-.623-.805 1.638 1.638 0 0 0-.83-.23 1.714 1.714 0 0 0-.847.219c-.183.107-.34.254-.457.428a1.358 1.358 0 0 0-.22.579 1.223 1.223 0 0 0 .876 1.369 1.188 1.188 0 0 0 1.15-.316c.154-.154.27-.341.339-.545.062-.153-.02-.058-.24.287-.285.303-.36.401-.226.299a.77.77 0 0 1-.451.12c.178-.003-.33-.07-.172-.02a.9.9 0 0 1-.652-.663c-.018-.107-.062-.5.078-.538 0 0-.166.246-.031.059s-.077.07-.107.099l1.196-.342c-.182-.043.265.149.115.05l.173.128c-.058-.058-.045-.039.03.054.048.042.139.177 0 0 .08.216.105.274.076.175a.267.267 0 0 1-.019-.068c.027-.001.011.351.021.149.002-.133-.087.326-.025.15.062-.177-.163.262-.052.111-.047.062-.218.231-.064.098l-1.156.346c.035.012.071.02.108.024-.135.002-.288-.158-.366-.245-.079-.086-.069-.09-.04-.045.03.045.023.032-.019-.055a.313.313 0 0 1-.043-.168c.001-.107.002-.117 0-.033a.656.656 0 0 1 .08-.306.685.685 0 0 1 .216-.237l-.207.159c.32-.159.41-.219.27-.18a1.29 1.29 0 0 0 .047 0 .447.447 0 0 1 .215-.004.955.955 0 0 0-1.088.545.877.877 0 0 0 .352 1.123l-.017-.003Z"/></svg>