<?xml version="1.0" encoding="UTF-8"?>
<svg id="Layer_1" xmlns="http://www.w3.org/2000/svg" version="1.1" viewBox="0 0 288 228">
  <defs>
    <style>
      .st0 {
        fill: #00d8d8;
      }

      .st2 {
        fill: #fff;
      }
    </style>
  </defs>
  <circle class="st0" cx="144" cy="135.8" r="92.8"/>
  <g>
    <path class="st2" d="M144,57.7c43.1,0,78.2,35.1,78.2,78.2s-35.1,78.2-78.2,78.2-78.2-35.1-78.2-78.2,35.1-78.2,78.2-78.2M144,52c-46.3,0-83.8,37.5-83.8,83.8s37.5,83.8,83.8,83.8,83.8-37.5,83.8-83.8-37.5-83.8-83.8-83.8h0Z"/>
    <circle class="st2" cx="121.5" cy="106.6" r="19.4"/>
    <circle class="st2" cx="179" cy="133" r="15.8"/>
    <path class="st2" d="M141,165c-2.4-.5-4.8-1.2-7.1-2.1-9.4-3.5-17.9-9.9-23.4-18.3-1.4-2.1-2.6-4.3-4.4-6-2.2-2-6.1-3.4-7.8-.2s-2.3,7.2-1.9,10.9c.5,4.3,2.2,8.3,4.4,12,4.8,7.9,11.9,14.3,20,18.8,10.3,5.8,22.2,8.7,33.9,7.4,11.7-1.3,23-7.1,30.1-16.4,1-1.3,2-2.8,2.3-4.5s-.3-3.6-1.8-4.4c-1.2-.6-2.6-.5-3.9-.3-5.9,1-11.7,2.8-17.7,3.8-7.5,1.3-15.3,1.1-22.7-.5Z"/>
  </g>
</svg>
