<?xml version="1.0" encoding="UTF-8"?>
<svg id="Layer_1" xmlns="http://www.w3.org/2000/svg" version="1.1" viewBox="0 0 288 360">
  <!-- Generator: Adobe Illustrator 29.8.1, SVG Export Plug-In . SVG Version: 2.1.1 Build 2)  -->
  <defs>
    <style>
      .st0 {
        fill: #00d8d8;
      }

      .st1 {
        fill: #2a3853;
      }

      .st2 {
        fill: #fff;
      }
    </style>
  </defs>
  <g>
    <path class="st1" d="M89.1,300.9c-12.9,1.1-21.1-10.7-20.8-20.6.4-13.2,8.5-21.9,21.2-21.9,12.3,0,20.4,8.7,20.6,21.5.2,12.7-10.3,22-21,21ZM99.8,279.6c0-7.8-4.1-13.1-10.2-13.2-5.3-.1-9.9,4.3-10.7,10.3-1.1,8.1,2.2,14.9,7.7,16.1.3,0,.5,0,.8,0,7.6,1,12.5-4.1,12.4-13.2Z"/>
    <path class="st1" d="M47.4,289.1c3.1-9.1,6.1-17.6,9-26,1.3-3.7,6.4-5.5,9.6-3.2.8.6,1.4,2.4,1.1,3.2-6.1,15.7-12.3,31.3-18.8,46.8-2.1,5.1-6.6,7.5-12.3,7-2.4-.2-3.7-1.2-3.7-3.7,0-2.3.3-4,3.3-4.4,5-.6,7.6-6,5.5-10.9-4.5-10.8-9-21.5-13.4-32.3-.9-2.3-2.2-4.9,1.5-6.2,3.7-1.3,6.9,0,8.1,3.3,2.9,7.8,5.7,15.7,8.6,23.5.3.8.7,1.6,1.4,3Z"/>
    <path class="st1" d="M239.9,300.8c-12.1,0-20.2-8.2-20.4-20.6-.2-12.6,8.4-21.8,20.3-21.9,12.5,0,21.4,8.7,21.4,21.2,0,14.4-11.3,22.2-21.3,21.2ZM251,280c0-7.8-4.3-13.4-10.5-13.6-5.7-.1-9.9,4.3-10.7,11.2-.9,7.3,2.7,14.2,7.9,15.2.4,0,.8,0,1.2.1,7.1.6,12.1-4.8,12.1-12.9Z"/>
    <path class="st1" d="M187.4,262.9c2.5-1.2,4.3-2.3,6.3-3,10.9-4.4,19.5.6,20.3,12.3.6,8.4.2,16.8.2,25.2,0,3.5-2.9,3.3-5.2,3.4-2.8.2-5-.8-5-4.2,0-6.9,0-13.9-.1-20.8-.1-6.1-2.9-9.5-7.4-9.4-4.7.1-8.6,4.5-8.6,9.8,0,6.7-.1,13.3,0,20,0,3.6-1.8,4.6-4.9,4.7-3.1,0-5.1-.8-5.1-4.4,0-10.3,0-20.5,0-30.8,0-2.5-.6-5.4,2.8-6.2,3.1-.8,5.8-.1,6.8,3.6Z"/>
    <path class="st1" d="M161,295.4c-4.3,4.1-8.6,5.7-13.6,5.6-8-.3-12.7-4.6-13.1-13.4-.4-8.2-.1-16.5-.2-24.8,0-3.2,2.3-3.4,4.7-3.6,2.8-.2,5.3.2,5.4,3.6.2,4.3,0,8.5.1,12.8,0,3.1,0,6.1.2,9.2.3,5.5,2.4,8,6.7,8.1,5.1,0,9-3.4,9.1-8.5.2-6.5.2-13.1,0-19.6,0-3.4.5-5.7,4.7-5.6,4.6.1,5.2.7,5.2,5.8,0,10.1,0,20.3,0,30.4,0,2.6.3,5.2-3.4,5.5-3.4.3-5.8-.6-5.9-5.4Z"/>
    <path class="st1" d="M126.9,272.3c0,7.9-.1,15.8,0,23.6,0,3.8-1.7,5-5,5-3.3,0-5.2-1-5.2-4.8.1-16,0-32,0-48,0-3.8,2.2-4.7,5.4-4.8,3.3,0,4.9,1.1,4.8,4.7-.1,8.1,0,16.3,0,24.4Z"/>
  </g>
  <circle class="st0" cx="144" cy="135.8" r="92.8"/>
  <g>
    <path class="st2" d="M144,57.7c43.1,0,78.2,35.1,78.2,78.2s-35.1,78.2-78.2,78.2-78.2-35.1-78.2-78.2,35.1-78.2,78.2-78.2M144,52c-46.3,0-83.8,37.5-83.8,83.8s37.5,83.8,83.8,83.8,83.8-37.5,83.8-83.8-37.5-83.8-83.8-83.8h0Z"/>
    <circle class="st2" cx="121.5" cy="106.6" r="19.4"/>
    <circle class="st2" cx="179" cy="133" r="15.8"/>
    <path class="st2" d="M141,165c-2.4-.5-4.8-1.2-7.1-2.1-9.4-3.5-17.9-9.9-23.4-18.3-1.4-2.1-2.6-4.3-4.4-6-2.2-2-6.1-3.4-7.8-.2s-2.3,7.2-1.9,10.9c.5,4.3,2.2,8.3,4.4,12,4.8,7.9,11.9,14.3,20,18.8,10.3,5.8,22.2,8.7,33.9,7.4,11.7-1.3,23-7.1,30.1-16.4,1-1.3,2-2.8,2.3-4.5s-.3-3.6-1.8-4.4c-1.2-.6-2.6-.5-3.9-.3-5.9,1-11.7,2.8-17.7,3.8-7.5,1.3-15.3,1.1-22.7-.5Z"/>
  </g>
</svg>