<?xml version="1.0" encoding="UTF-8"?>
<svg id="Layer_1" xmlns="http://www.w3.org/2000/svg" version="1.1" viewBox="0 0 288 144">
  <!-- Generator: Adobe Illustrator 29.8.1, SVG Export Plug-In . SVG Version: 2.1.1 Build 2)  -->
  <defs>
    <style>
      .st0 {
        fill: #00d8d8;
      }

      .st1 {
        fill: #2a3853;
      }

      .st2 {
        fill: #fff;
      }
    </style>
  </defs>
  <g>
    <path class="st1" d="M38.3,82c3.4-9.9,6.6-19.2,9.9-28.5,1.4-4,7-6,10.5-3.5.8.6,1.6,2.6,1.2,3.5-6.7,17.1-13.4,34.3-20.5,51.2-2.3,5.6-7.2,8.2-13.5,7.7-2.6-.2-4-1.4-4-4.1,0-2.6.4-4.4,3.6-4.8,5.5-.7,8.3-6.6,6-11.9-4.9-11.8-9.8-23.5-14.6-35.3-1-2.5-2.4-5.4,1.6-6.8,4-1.4,7.6,0,8.9,3.6,3.2,8.5,6.3,17.1,9.4,25.7.3.9.8,1.7,1.5,3.3Z"/>
    <path class="st1" d="M248.9,94.8c-13.2,0-22.1-8.9-22.3-22.5-.2-13.7,9.2-23.9,22.2-23.9,13.7,0,23.4,9.5,23.4,23.2,0,15.8-12.4,24.3-23.3,23.2ZM261.1,71.9c0-8.5-4.7-14.7-11.5-14.8-6.2-.1-10.8,4.7-11.7,12.2-.9,8,2.9,15.5,8.6,16.7.4,0,.9,0,1.3.1,7.7.6,13.2-5.2,13.2-14.2Z"/>
    <path class="st1" d="M191.5,53.3c2.7-1.3,4.7-2.5,6.9-3.3,11.9-4.8,21.3.7,22.2,13.4.6,9.1.2,18.4.2,27.5,0,3.8-3.2,3.6-5.7,3.8-3.1.2-5.5-.9-5.5-4.6,0-7.6,0-15.2-.1-22.7-.1-6.7-3.1-10.4-8.1-10.2-5.1.2-9.4,4.9-9.4,10.7,0,7.3-.2,14.6,0,21.9.1,4-2,5-5.4,5.1-3.4,0-5.6-.9-5.5-4.9,0-11.2,0-22.4,0-33.7,0-2.7-.6-5.9,3.1-6.8,3.4-.8,6.4-.1,7.4,3.9Z"/>
    <path class="st1" d="M162.6,88.9c-4.7,4.5-9.4,6.3-14.9,6.1-8.8-.3-13.8-5-14.3-14.6-.5-9-.2-18.1-.2-27.1,0-3.5,2.5-3.8,5.1-3.9,3-.2,5.8.2,5.9,4,.2,4.7,0,9.3.1,14,0,3.4,0,6.7.2,10.1.3,6.1,2.6,8.8,7.4,8.8,5.6,0,9.9-3.8,10-9.3.2-7.1.2-14.3,0-21.4,0-3.7.6-6.3,5.1-6.2,5,.1,5.7.7,5.7,6.4,0,11.1,0,22.2,0,33.3,0,2.8.4,5.7-3.7,6-3.7.3-6.4-.7-6.5-5.9Z"/>
    <path class="st1" d="M125.3,63.5c0,8.6-.2,17.2,0,25.8.1,4.1-1.8,5.4-5.5,5.4-3.6,0-5.7-1.1-5.6-5.3.1-17.5,0-35,0-52.5,0-4.2,2.4-5.2,5.9-5.2,3.6,0,5.4,1.2,5.3,5.1-.2,8.9,0,17.8,0,26.7Z"/>
  </g>
  <g>
    <circle class="st0" cx="84.1" cy="71.5" r="23.6"/>
    <g>
      <path class="st2" d="M84.1,51.6c11,0,19.9,8.9,19.9,19.9s-8.9,19.9-19.9,19.9-19.9-8.9-19.9-19.9,8.9-19.9,19.9-19.9M84.1,50.2c-11.8,0-21.3,9.5-21.3,21.3s9.5,21.3,21.3,21.3,21.3-9.5,21.3-21.3-9.5-21.3-21.3-21.3h0Z"/>
      <circle class="st2" cx="78.3" cy="64.1" r="4.9"/>
      <circle class="st2" cx="93" cy="70.8" r="4"/>
      <path class="st2" d="M83.3,78.9c-.6-.1-1.2-.3-1.8-.5-2.4-.9-4.5-2.5-6-4.7-.3-.5-.7-1.1-1.1-1.5-.6-.5-1.6-.9-2,0s-.6,1.8-.5,2.8c.1,1.1.6,2.1,1.1,3,1.2,2,3,3.6,5.1,4.8,2.6,1.5,5.7,2.2,8.6,1.9s5.9-1.8,7.7-4.2c.3-.3.5-.7.6-1.1s0-.9-.5-1.1c-.3-.2-.7-.1-1,0-1.5.2-3,.7-4.5,1-1.9.3-3.9.3-5.8-.1Z"/>
    </g>
  </g>
</svg>